<svg width="142" height="28" viewBox="0 0 142 28" fill="none" xmlns="http://www.w3.org/2000/svg">
<path d="M46.9259 6.53203L46.9732 6.53203C47.2569 6.53203 47.4224 6.74482 47.4224 7.02854L47.4224 19.7722C47.4224 19.985 47.2569 20.2214 46.9732 20.2214C46.7604 20.2214 46.5239 20.0559 46.5239 19.7722L46.5239 6.98125C46.5239 6.74482 46.6894 6.53203 46.9259 6.53203ZM34.7969 7.19404L43.143 7.19404C43.4267 7.19404 43.5922 7.47776 43.5922 7.69054C43.5922 7.90333 43.4267 8.13976 43.143 8.13976L35.2462 8.13976L35.2462 13.4595L42.3864 13.4595C42.5992 13.4595 42.8356 13.625 42.8356 13.9087C42.8356 14.1215 42.6701 14.3579 42.3864 14.3579L35.3171 14.3579L35.3171 19.8431C35.2698 20.1268 35.0334 20.3396 34.7733 20.3396C34.4896 20.3396 34.2768 20.1268 34.2768 19.8431L34.2768 7.71418L34.3241 7.71418C34.3175 7.64823 34.3248 7.58162 34.3455 7.51868C34.3663 7.45573 34.4001 7.39786 34.4447 7.34881C34.4893 7.29977 34.5437 7.26064 34.6044 7.23398C34.665 7.20731 34.7307 7.1937 34.7969 7.19404ZM59.0312 11.1424C59.0312 10.8587 58.8184 10.6932 58.5819 10.6932C58.2982 10.6932 58.1327 10.906 58.1327 11.1424L58.1327 16.4621C58.1327 18.2827 56.6432 19.7013 54.8227 19.654C52.8839 19.654 51.7727 18.4009 51.7727 16.4149L51.7727 11.1424C51.7727 10.8587 51.5599 10.6932 51.3235 10.6932C51.1107 10.6932 50.8743 10.906 50.8743 11.1424L50.8743 16.5804C50.8743 18.8265 52.3165 20.4815 54.6808 20.4815C56.123 20.5288 57.4943 19.7722 58.1564 18.4955L58.1564 19.8668C58.1564 20.1505 58.3691 20.316 58.6056 20.316C58.8893 20.316 59.0548 20.1032 59.0548 19.8668L59.0075 19.8668L59.0075 11.1424L59.0312 11.1424ZM67.4245 11.2134C67.4245 11.4262 67.2117 11.5917 66.9752 11.5917L63.9253 11.5917L63.9253 17.6916C63.9253 19.0629 64.7055 19.5594 65.864 19.5594C66.2423 19.5594 66.6442 19.5121 66.9752 19.3939C67.188 19.3939 67.3535 19.5594 67.3535 19.7722C67.3535 19.9377 67.2353 20.1032 67.0698 20.1505C66.6206 20.316 66.1241 20.3633 65.6985 20.3633C64.2563 20.3633 63.0505 19.5358 63.0505 17.7862L63.0505 11.5917L62.0102 11.5917C61.7974 11.5917 61.561 11.3789 61.561 11.1424C61.561 10.9297 61.7738 10.7641 62.0102 10.7641L63.0505 10.7641L63.0505 8.13976C63.0505 7.92698 63.216 7.69055 63.4288 7.69055L63.4761 7.69055C63.6888 7.69055 63.9253 7.90333 63.9253 8.13976L63.9253 10.7641L66.9752 10.7641C67.2117 10.7641 67.4245 10.9769 67.4245 11.2134ZM74.5174 11.5917C74.7302 11.5917 74.9666 11.4262 74.9666 11.2134C74.9666 11.0006 74.7538 10.7642 74.5174 10.7642L71.4674 10.7642L71.4674 8.13977C71.4674 7.92698 71.2547 7.69055 71.0182 7.69055L70.9709 7.69055C70.7581 7.69055 70.5926 7.90333 70.5926 8.13976L70.5926 10.7641L69.5523 10.7641C69.3396 10.7641 69.1031 10.9297 69.1031 11.1424C69.1031 11.3552 69.3159 11.5917 69.5523 11.5917L70.5926 11.5917L70.5926 17.7862C70.5926 19.5358 71.7984 20.3633 73.2407 20.3633C73.6899 20.3633 74.1864 20.316 74.612 20.1505C74.7775 20.1032 74.8957 19.9377 74.8957 19.7722C74.8957 19.5594 74.7302 19.3939 74.5174 19.3939C74.1864 19.5121 73.8081 19.5594 73.4062 19.5594C72.2477 19.5594 71.4674 19.0629 71.4674 17.6916L71.4674 11.5917L74.5174 11.5917ZM76.6216 15.4928C76.6216 12.7029 78.5604 10.5041 81.1611 10.5041C83.8801 10.5041 85.5824 12.7029 85.5824 15.4928C85.5824 15.7056 85.3696 15.942 85.1332 15.942L77.6146 15.942C77.7802 18.3063 79.5061 19.6776 81.3739 19.6776C82.5324 19.6776 83.6909 19.1811 84.4712 18.3536C84.5184 18.3063 84.6367 18.2354 84.7549 18.2354C84.9677 18.2354 85.2041 18.4482 85.2041 18.6846C85.2041 18.8028 85.1568 18.8974 85.0386 19.0156C84.0929 20.0559 82.7216 20.5997 81.3266 20.5524C78.7732 20.5524 76.6216 18.5664 76.6216 15.5637L76.6216 15.4928ZM89.1761 13.5068C89.7909 11.9227 91.2804 10.7642 92.9827 10.6459C93.2664 10.6459 93.4792 10.8587 93.4792 11.1897C93.4792 11.4025 93.3137 11.6862 93.03 11.6862L92.9827 11.6862C90.9257 11.899 89.1761 13.3885 89.1761 16.4621L89.1761 19.985C89.1289 20.2687 88.9634 20.4342 88.6796 20.4342C88.4668 20.4342 88.2304 20.2214 88.2304 19.985L88.2304 11.1897C88.2777 10.906 88.4432 10.7405 88.7269 10.7405C88.9397 10.7405 89.1761 10.9533 89.1761 11.1897L89.1761 13.5068ZM108.067 10.1494C107.405 10.1494 106.861 10.5987 106.696 11.237L105.088 16.3439L103.48 11.237C103.315 10.575 102.7 10.0785 101.991 10.0785L101.825 10.0785C101.116 10.0785 100.501 10.5277 100.336 11.237L98.728 16.2967L97.1912 11.1897C97.0256 10.575 96.4819 10.1021 95.8199 10.1021L95.7726 10.1021C95.0633 10.1021 94.4958 10.7169 94.4958 11.4262C94.4958 11.639 94.5431 11.8754 94.6141 12.0882L97.0966 19.1811C97.2621 19.8904 97.8768 20.3869 98.6334 20.4342L98.7516 20.4342C99.4609 20.4342 100.076 19.9377 100.288 19.2284L101.896 14.1688L103.504 19.2284C103.669 19.9377 104.331 20.4342 105.041 20.4342L105.159 20.4342C105.939 20.4342 106.601 19.9377 106.767 19.1811L109.249 12.0409C109.296 11.8754 109.367 11.6626 109.367 11.4971L109.367 11.4498C109.344 10.7169 108.8 10.1494 108.067 10.1494ZM111.944 10.6459C112.985 10.3149 114.049 10.1022 115.16 10.1494C116.697 10.1494 117.808 10.5987 118.635 11.308C119.416 12.1827 119.794 13.3413 119.747 14.4998L119.747 18.992C119.747 19.7722 119.132 20.3633 118.375 20.3633C117.666 20.3633 117.051 19.8668 117.004 19.1575C116.224 19.985 115.113 20.4815 113.954 20.4106C112.134 20.4106 110.526 19.323 110.526 17.3369C110.526 15.1381 112.181 14.0978 114.569 14.0978C115.396 14.0978 116.224 14.2161 117.004 14.4761L117.004 14.3106C117.004 13.1048 116.295 12.4901 114.853 12.4901C114.191 12.4901 113.529 12.5374 112.867 12.7738C112.748 12.8211 112.583 12.8211 112.488 12.8211C111.826 12.8684 111.282 12.3719 111.282 11.7335C111.235 11.2607 111.495 10.8114 111.944 10.6459ZM128.258 11.0952C128.424 10.4804 128.968 10.1022 129.582 10.1022C130.362 10.1022 130.954 10.7169 130.954 11.4262L130.954 11.4734C130.954 11.6862 130.906 11.9227 130.788 12.1355L127.809 19.2284C127.525 19.9377 126.863 20.3869 126.154 20.4342L125.988 20.4342C125.208 20.3869 124.617 19.8904 124.381 19.1811L121.284 12.0882C121.165 11.8754 121.118 11.639 121.118 11.4262C121.165 10.6459 121.78 10.1021 122.489 10.1022C123.151 10.1022 123.695 10.5514 123.861 11.1424L126.012 16.9114L128.258 11.0952ZM132.088 15.7056C132.207 18.4482 134.571 20.5997 137.337 20.4342C138.614 20.4342 139.82 20.0559 140.813 19.2284C141.096 19.0156 141.191 18.7319 141.191 18.4009L141.191 18.3536C141.191 17.7389 140.695 17.266 140.08 17.266C139.867 17.266 139.583 17.3133 139.418 17.4788C138.803 17.928 138.094 18.1881 137.361 18.1408C136.155 18.1881 135.091 17.3606 134.926 16.1548L140.624 16.1548C141.333 16.1075 141.9 15.4928 141.829 14.7835L141.829 14.5707C141.829 12.0882 139.678 10.0076 137.03 10.0785C134.098 10.0785 132.041 12.4428 132.041 15.3036L132.041 15.7056L132.088 15.7056Z" fill="#10112B"/>
<path d="M77.5437 15.0436C77.7092 12.963 79.1988 11.3552 81.0902 11.3552C83.2417 11.3552 84.4002 13.1048 84.5185 15.0436L77.5437 15.0436ZM117.028 16.6986C117.028 17.7862 116.082 18.4482 114.758 18.4009C113.883 18.4009 113.221 17.9517 113.221 17.1951L113.221 17.1478C113.221 16.3203 114.001 15.7765 115.207 15.7765C115.822 15.7765 116.484 15.942 117.028 16.1548L117.028 16.6986ZM137.053 12.3482C135.895 12.3482 135.115 13.1758 134.902 14.4998L139.158 14.4998C138.992 13.223 138.212 12.3482 137.053 12.3482Z" fill="white"/>
<path d="M19.9963 0.219307C32.4326 -1.6485 24.4649 8.94363 20.6111 11.9227C23.2591 13.956 25.9781 16.8168 27.1366 20.0559C29.2881 25.9903 23.992 26.8651 19.9963 25.3756C15.6224 23.8388 11.7685 20.5524 9.21507 16.6986C8.50578 16.6986 7.72556 16.5804 6.99262 16.3676C8.43485 20.4342 9.04957 24.5954 8.64764 28C8.64764 21.1435 5.38489 14.3343 0.679906 8.6599C-0.975113 6.67388 0.72719 5.20801 2.21671 7.1231C3.23336 8.51804 4.15545 9.96028 4.98295 11.4498C6.61433 5.87002 14.5584 0.99953 19.9963 0.219307ZM18.2231 10.3149C20.6584 8.82541 28.0587 0.881316 21.1549 1.59061C17.1828 2.03983 12.3596 5.70451 10.3736 8.06882C13.1398 7.73782 15.9534 8.94362 18.2231 10.3149ZM11.3666 16.4858C13.5891 18.9683 16.6154 21.3799 19.8781 22.2547C21.7696 22.7512 23.8502 22.5384 23.0936 19.8431C22.3134 17.3606 20.3273 15.1854 18.3886 13.5304C17.8448 13.9087 17.2301 14.3106 16.6154 14.5707C14.9604 15.4928 13.1871 16.1548 11.3666 16.4858Z" fill="#EBA12A"/>
<path d="M10.3027 9.81841C12.1941 9.65291 14.2274 10.6459 15.7879 11.6389C14.2984 12.3482 12.6433 12.7974 10.9174 12.892C8.38759 12.9157 7.86744 10.0548 10.3027 9.81841Z" fill="white"/>
</svg>
