<svg width="93" height="28" viewBox="0 0 93 28" fill="none" xmlns="http://www.w3.org/2000/svg">
<path d="M67.2235 2.93243C67.2235 1.30856 68.51 0 70.1065 0C71.703 0 72.9895 1.30856 72.9895 2.93243C72.9895 4.55631 71.703 5.88063 70.1065 5.88063C68.51 5.88063 67.2235 4.55631 67.2235 2.93243ZM25.6835 11.8243C27.032 13.3694 27.7915 15.3559 27.7915 17.4212V27.6216H23.3585V17.295C23.343 15.2613 21.7 13.6059 19.7005 13.6059C19.592 13.6059 19.468 13.6216 19.3285 13.6216C17.546 13.8108 16.0425 15.5293 16.0425 17.3896V27.6059H11.625V17.3108C11.6095 15.277 9.982 13.6059 7.9825 13.6059C7.874 13.6059 7.75 13.6216 7.6105 13.6216C5.828 13.8108 4.3245 15.5293 4.3245 17.4054V27.6059H0V17.2793C0 12.7703 3.6115 9.11261 8.029 9.11261C10.2455 9.11261 12.3535 10.0586 13.8725 11.6824C15.3915 10.0428 17.515 9.11261 19.7315 9.11261C19.9795 9.11261 20.1965 9.12838 20.4445 9.14414C22.4595 9.33333 24.3195 10.2793 25.6835 11.8243ZM55.397 27.6374H50.9795V0.441442H55.397V27.6374ZM63.86 27.6374H59.4425V0.441442H63.86V27.6374ZM72.323 27.6216H67.9055V9.58559H72.323V27.6216ZM93 20.2117H79.546C80.1505 22.3874 82.088 23.9167 84.3355 23.9167C86.1025 23.9167 87.6835 23.0023 88.598 21.473L88.784 21.1734L92.442 23.0023L92.225 23.3649C90.5665 26.2185 87.513 27.9842 84.258 27.9842H84.2425C81.7625 27.9842 79.4375 26.991 77.6705 25.1779C75.9035 23.3649 74.958 20.9685 74.989 18.4459C75.02 15.9707 75.981 13.6374 77.686 11.8874C79.391 10.1374 81.685 9.15991 84.1185 9.12838H84.227C86.5675 9.12838 88.753 10.0743 90.427 11.7928C92.0855 13.5113 93 15.7658 93 18.1464V20.2117ZM79.608 16.491H88.5205C87.885 14.5676 86.0715 13.2117 84.0565 13.2117C82.0415 13.2117 80.2435 14.5676 79.608 16.491ZM48.5925 18.5721C48.5925 23.759 44.4385 28 39.339 28C34.2395 28 30.0855 23.759 30.0855 18.5721C30.0855 13.3851 34.224 9.14414 39.339 9.14414C44.4385 9.14414 48.5925 13.3694 48.5925 18.5721ZM44.206 18.5721C44.206 15.8446 42.0205 13.6059 39.339 13.6059C36.6575 13.6059 34.472 15.8288 34.472 18.5721C34.472 21.2996 36.6575 23.5383 39.339 23.5383C42.0205 23.5383 44.206 21.3153 44.206 18.5721Z" fill="black"/>
</svg>
