<svg width="106" height="28" viewBox="0 0 106 28" fill="none" xmlns="http://www.w3.org/2000/svg">
<path fill-rule="evenodd" clip-rule="evenodd" d="M12.6098 0.0029046H4.43649C3.87718 0.0029046 3.40149 0.409356 3.31427 0.961246L0.00857399 21.9176C-0.0571296 22.3312 0.263151 22.704 0.682647 22.704H4.58465C5.14396 22.704 5.61965 22.2975 5.70687 21.7445L6.59845 16.0923C6.68446 15.5388 7.1613 15.1329 7.71945 15.1329H10.3068C15.6909 15.1329 18.798 12.5277 19.6099 7.3655C19.9754 5.10706 19.6253 3.33249 18.5673 2.08936C17.4059 0.725114 15.3452 0.0029046 12.6098 0.0029046ZM13.5527 7.65693C13.1059 10.5895 10.865 10.5895 8.69826 10.5895H7.46488L8.33014 5.11259C8.38152 4.7819 8.66834 4.53803 9.00299 4.53803H9.56827C11.0442 4.53803 12.4367 4.53802 13.1562 5.37913C13.5848 5.88125 13.7164 6.62669 13.5527 7.65693ZM37.0418 7.56292H33.1278C32.7943 7.56292 32.5061 7.80679 32.4547 8.13803L32.2816 9.23242L32.0078 8.83591C31.1605 7.60605 29.2713 7.19517 27.3853 7.19517C23.0598 7.19517 19.366 10.4706 18.6464 15.0654C18.2726 17.357 18.8041 19.5486 20.1043 21.077C21.2972 22.4822 23.004 23.0678 25.0343 23.0678C28.5191 23.0678 30.4521 20.8271 30.4521 20.8271L30.2773 21.9148C30.2115 22.3307 30.5317 22.7034 30.9487 22.7034H34.4745C35.0353 22.7034 35.5081 22.2969 35.5966 21.744L37.7121 8.34928C37.779 7.9373 37.4599 7.56292 37.0418 7.56292ZM31.5858 15.1799C31.2081 17.4156 29.4333 18.9165 27.1702 18.9165C26.0337 18.9165 25.125 18.5521 24.5421 17.8614C23.9636 17.1757 23.7434 16.1991 23.9276 15.1119C24.2805 12.8949 26.0851 11.3454 28.3139 11.3454C29.425 11.3454 30.3287 11.7143 30.9238 12.411C31.52 13.115 31.7567 14.0971 31.5858 15.1799ZM53.9538 7.56237H57.8872C58.438 7.56237 58.7593 8.18006 58.4463 8.63186L45.3648 27.5123C45.1529 27.8181 44.804 28 44.4312 28H40.5028C39.9498 28 39.6268 27.3773 39.947 26.9244L44.0203 21.1755L39.6882 8.46319C39.5383 8.02135 39.8646 7.56237 40.3347 7.56237H44.1995C44.7017 7.56237 45.1447 7.89195 45.2896 8.37251L47.5886 16.0503L53.0136 8.06061C53.226 7.74872 53.5788 7.56237 53.9538 7.56237Z" fill="#253B80"/>
<path fill-rule="evenodd" clip-rule="evenodd" d="M96.6002 21.9158L99.9546 0.576224C100.006 0.244979 100.293 0.00110599 100.627 0H104.403C104.82 0 105.14 0.373824 105.074 0.787466L101.766 21.7427C101.68 22.2957 101.204 22.7022 100.644 22.7022H97.2717C96.8547 22.7022 96.5344 22.3294 96.6002 21.9158ZM70.9112 0.00110749H62.7364C62.1783 0.00110749 61.7027 0.407559 61.6153 0.959449L58.3097 21.9158C58.2439 22.3294 58.5641 22.7022 58.9816 22.7022H63.176C63.566 22.7022 63.8995 22.4179 63.9603 22.0308L64.8983 16.0905C64.9846 15.537 65.4613 15.1311 66.0193 15.1311H68.6054C73.9906 15.1311 77.0971 12.5259 77.9096 7.3637C78.2763 5.10526 77.9239 3.33069 76.8665 2.08756C75.7056 0.723317 73.6466 0.00110749 70.9112 0.00110749ZM71.8541 7.65513C71.4083 10.5877 69.1674 10.5877 66.9994 10.5877H65.7671L66.6338 5.11079C66.6852 4.7801 66.9695 4.53623 67.3052 4.53623H67.8704C69.3454 4.53623 70.7391 4.53623 71.4581 5.37733C71.8873 5.87946 72.0178 6.6249 71.8541 7.65513ZM95.3409 7.56112H91.4297C91.0934 7.56112 90.808 7.80499 90.7577 8.13624L90.5846 9.23062L90.3097 8.83412C89.4624 7.60425 87.5743 7.19338 85.6884 7.19338C81.3629 7.19338 77.6701 10.4688 76.9506 15.0636C76.5778 17.3552 77.1071 19.5468 78.4073 21.0752C79.6025 22.4804 81.307 23.066 83.3373 23.066C86.8221 23.066 88.7545 20.8253 88.7545 20.8253L88.5803 21.913C88.5145 22.3289 88.8347 22.7016 89.2545 22.7016H92.7786C93.3366 22.7016 93.8123 22.2952 93.8996 21.7422L96.0162 8.34748C96.0809 7.9355 95.7607 7.56112 95.3409 7.56112ZM89.8855 15.1781C89.51 17.4139 87.733 18.9147 85.4693 18.9147C84.335 18.9147 83.4247 18.5503 82.8412 17.8596C82.2627 17.1739 82.0453 16.1973 82.2273 15.1101C82.5818 12.8931 84.3842 11.3436 86.6131 11.3436C87.7247 11.3436 88.6279 11.7125 89.2235 12.4092C89.8219 13.1132 90.0586 14.0953 89.8855 15.1781Z" fill="#179BD7"/>
</svg>
