<svg width="122" height="28" viewBox="0 0 122 28" fill="none" xmlns="http://www.w3.org/2000/svg">
<path d="M7.82772 7.36043L6.81577 11.4156L12.608 7.33735L8.81976 22.7256L12.6671 22.7291L18.2634 0" fill="#3395FF"/>
<path d="M1.59343 16.2598L0 22.7291H7.88554L11.1122 9.56885L1.59343 16.2598ZM28.985 10.5643C28.7922 11.3443 28.4208 11.9172 27.867 12.283C27.3144 12.6482 26.5389 12.8314 25.5379 12.8314H22.3575L23.4741 8.29851H26.6546C27.6543 8.29851 28.3412 8.48038 28.7138 8.85113C29.0865 9.22188 29.1764 9.7885 28.985 10.572M32.2778 10.474C32.6826 8.83714 32.5156 7.57799 31.7754 6.69659C31.0365 5.82218 29.7399 5.38148 27.8895 5.38148H20.7917L16.519 22.7368H19.9673L21.6892 15.7415H23.9509C24.4585 15.7415 24.8581 15.8324 25.1498 16.0073C25.4422 16.1892 25.6137 16.504 25.6664 16.9587L26.2819 22.7368H29.9764L29.3775 17.3504C29.2555 16.1472 28.7498 15.4407 27.8612 15.2308C28.994 14.8741 29.9429 14.2795 30.7075 13.454C31.4668 12.6346 32.0092 11.6076 32.2778 10.481M40.66 16.525C40.3709 17.7002 39.9276 18.5886 39.3281 19.2111C38.728 19.8337 38.011 20.1415 37.1744 20.1415C36.3224 20.1415 35.7448 19.8407 35.4396 19.2321C35.1338 18.6235 35.1235 17.7421 35.4075 16.5879C35.6915 15.4337 36.1445 14.5313 36.7677 13.8807C37.3909 13.2302 38.1195 12.9049 38.9561 12.9049C39.7914 12.9049 40.3632 13.2197 40.6523 13.8444C40.9479 14.4718 40.9543 15.3693 40.6652 16.5375L40.66 16.525ZM42.1712 10.3831L41.7394 12.1389C41.5531 11.5093 41.1914 11.0057 40.6568 10.6279C40.121 10.2572 39.4579 10.0683 38.667 10.0683C37.6968 10.0683 36.7651 10.3411 35.872 10.8868C34.9789 11.4324 34.1951 12.2019 33.5269 13.1952C32.8587 14.1885 32.3703 15.3148 32.0555 16.5809C31.7471 17.8541 31.6829 18.9663 31.8692 19.9317C32.0619 20.904 32.4667 21.6455 33.09 22.1631C33.7196 22.6878 34.5228 22.9466 35.5058 22.9466C36.2869 22.9509 37.0593 22.767 37.7674 22.408C38.4676 22.0642 39.0903 21.558 39.5922 20.925L39.1424 22.7549H42.477L45.5219 10.3894H42.1808L42.1712 10.3831ZM57.5047 10.3831H47.8073L47.1295 13.1392H52.772L45.3124 20.1555L44.6751 22.7438H54.6854L55.3632 19.9876H49.3172L56.8911 12.8664M66.0405 16.504C65.7404 17.7211 65.2952 18.6361 64.7073 19.2321C64.1194 19.8337 63.4075 20.1345 62.5716 20.1345C60.8239 20.1345 60.2495 18.9243 60.8458 16.504C61.1413 15.3008 61.5885 14.3963 62.1861 13.787C62.7836 13.1756 63.5077 12.8706 64.359 12.8706C65.1943 12.8706 65.7584 13.1735 66.0488 13.7835C66.3393 14.3921 66.3367 15.2994 66.0405 16.5026M67.9924 10.8483C67.2246 10.3278 66.2448 10.0676 65.0497 10.0676C63.8399 10.0676 62.72 10.3264 61.6894 10.8441C60.6631 11.3585 59.7611 12.1264 59.0551 13.0868C58.3291 14.0591 57.8067 15.1993 57.4861 16.5005C57.1713 17.7967 57.1327 18.9348 57.3769 19.9093C57.621 20.8816 58.135 21.6301 58.9061 22.1478C59.6835 22.6696 60.673 22.9291 61.8873 22.9291C63.0824 22.9291 64.1939 22.6675 65.2155 22.1471C66.2371 21.6238 67.1109 20.8809 67.837 19.9016C68.563 18.9264 69.0834 17.789 69.4047 16.4879C69.7259 15.1868 69.7645 14.0507 69.5203 13.0742C69.2762 12.1018 68.7686 11.3533 68.004 10.8322M79.8969 13.6863L80.7514 10.3215C80.4623 10.1606 80.0832 10.0767 79.6078 10.0767C78.8432 10.0767 78.1107 10.2824 77.4039 10.6993C76.7961 11.0532 76.2795 11.5527 75.8426 12.1781L76.286 10.3663L75.3177 10.3705H72.9404L69.8756 22.7312H73.2572L74.8474 16.2696C75.0787 15.3302 75.495 14.5908 76.0958 14.0661C76.6933 13.5394 77.4386 13.2756 78.3382 13.2756C78.8907 13.2756 79.4047 13.4135 79.893 13.6884M89.3058 16.5634C89.0167 17.7176 88.5798 18.5991 87.9822 19.2076C87.3847 19.819 86.6651 20.124 85.8298 20.124C84.9946 20.124 84.4227 19.8162 84.1208 19.2006C83.8124 18.5816 83.8059 17.6897 84.0951 16.5173C84.3842 15.3455 84.8275 14.4467 85.4379 13.8241C86.0483 13.1966 86.7679 12.8832 87.6032 12.8832C88.4256 12.8832 88.9781 13.205 89.2737 13.8556C89.5692 14.5061 89.5757 15.4085 89.2917 16.5627M91.6561 10.8686C91.0297 10.3229 90.2297 10.0501 89.2596 10.0501C88.4095 10.0501 87.5993 10.26 86.8309 10.6839C86.0631 11.1071 85.4398 11.6842 84.9612 12.4145L84.9727 12.3306L85.5401 10.3649H82.2376L81.3959 13.7856L81.3702 13.9045L77.9006 27.9958H81.2866L83.0343 20.9026C83.2077 21.5336 83.5611 22.0288 84.1008 22.387C84.6405 22.7438 85.3068 22.9207 86.099 22.9207C87.0821 22.9207 88.0202 22.6619 88.91 22.1443C89.8031 21.6252 90.5741 20.8781 91.2295 19.9128C91.8849 18.9474 92.3712 17.8282 92.6816 16.562C92.9964 15.2938 93.0607 14.1626 92.8807 13.1728C92.6976 12.1816 92.2922 11.4142 91.6664 10.8714M102.888 16.5131C102.599 17.6813 102.155 18.5767 101.558 19.1923C100.96 19.812 100.241 20.1205 99.4054 20.1205C98.5509 20.1205 97.9726 19.8197 97.6707 19.2111C97.3623 18.6025 97.3558 17.7211 97.6385 16.5669C97.9212 15.4127 98.3723 14.5103 98.9955 13.8598C99.6188 13.2092 100.348 12.8846 101.185 12.8846C102.02 12.8846 102.585 13.1994 102.881 13.822C103.176 14.4467 103.178 15.3442 102.89 16.5152L102.888 16.5131ZM104.398 10.3677L103.965 12.1235C103.779 11.4905 103.419 10.9868 102.886 10.6125C102.346 10.239 101.684 10.0529 100.894 10.0529C99.924 10.0529 98.9872 10.3257 98.0928 10.8714C97.1997 11.417 96.4158 12.1823 95.7476 13.1728C95.0794 14.1633 94.5911 15.2924 94.2763 16.5585C93.9647 17.8296 93.9036 18.9439 94.09 19.9135C94.2782 20.8788 94.6836 21.6245 95.3107 22.145C95.9365 22.6626 96.7435 22.9242 97.7266 22.9242C98.5169 22.9242 99.2718 22.7452 99.9882 22.3856C100.687 22.0402 101.308 21.5334 101.808 20.9005L101.359 22.7319H104.693L107.738 10.3712H104.403L104.398 10.3677ZM121.737 10.3719L121.739 10.3684H119.69C119.624 10.3684 119.566 10.3719 119.506 10.3733H118.443L117.897 11.1987L117.762 11.3946L117.704 11.4926L113.383 18.0457L112.49 10.3719H108.951L110.744 22.033L106.786 28H110.313L111.271 26.5219C111.298 26.4785 111.322 26.4422 111.354 26.396L112.472 24.6682L112.504 24.6192L117.511 16.8894L121.733 10.3838L121.739 10.3796H121.737V10.3719Z" fill="#072654"/>
</svg>
