<svg width="70" height="28" viewBox="0 0 70 28" fill="none" xmlns="http://www.w3.org/2000/svg">
<path d="M47.8334 5.85024C47.1658 5.84638 46.504 5.97433 45.886 6.22676C45.268 6.47919 44.7059 6.85113 44.2319 7.32125L43.9952 6.15459H39.9541V28L44.5532 27.0024V21.7101C45.4679 22.4762 46.6234 22.8953 47.8165 22.8937C51.0966 22.8937 54.1063 20.2053 54.1063 14.2536C54.1063 8.80918 51.0628 5.85024 47.8334 5.85024ZM46.7343 18.7512C46.3309 18.7745 45.9275 18.7076 45.5531 18.5555C45.1788 18.4035 44.843 18.17 44.5701 17.872V10.9227C44.8441 10.6138 45.1837 10.37 45.5639 10.2091C45.9442 10.0483 46.3557 9.97432 46.7682 9.99275C48.459 9.99275 49.6087 11.9034 49.6087 14.3551C49.6087 16.8068 48.4421 18.7512 46.7343 18.7512Z" fill="#6772E5"/>
<path d="M62.5942 5.85024C58.1643 5.85024 55.4759 9.6715 55.4759 14.4903C55.4759 20.1884 58.6546 23.0797 63.186 23.0797C64.9546 23.1086 66.701 22.6836 68.2585 21.8454V18.0411C66.844 18.7548 65.2774 19.1145 63.6933 19.0894C61.8672 19.0894 60.3117 18.4299 60.0749 16.215H69.1715C69.1715 15.9613 69.1715 14.9638 69.1715 14.5242C69.3237 9.67149 67.0242 5.85024 62.5942 5.85024ZM60.1087 12.7319C60.1087 10.6014 61.4107 9.70531 62.5604 9.70531C63.7102 9.70531 64.9276 10.6014 64.9276 12.7319H60.1087Z" fill="#6772E5"/>
<path d="M27.5435 7.4227L27.2561 6.03623H23.3334V22.4541H27.8648V11.3285C28.274 10.8316 28.8252 10.4715 29.4446 10.2963C30.0639 10.121 30.7221 10.139 31.331 10.3478V6.03623C30.6392 5.76524 29.8722 5.75663 29.1746 6.01202C28.477 6.26741 27.8968 6.76916 27.5435 7.4227Z" fill="#6772E5"/>
<path d="M4.64976 10.9734C4.64976 10.2295 5.25846 9.94203 6.22222 9.94203C7.81949 9.97641 9.38513 10.3939 10.7874 11.1594V6.71256C9.33761 6.12634 7.78599 5.83326 6.22222 5.85024C2.48551 5.85024 0 7.84541 0 11.1932C0 16.4348 7 15.5894 7 17.8382C7 18.7174 6.25604 19.0048 5.30918 19.0048C3.52276 18.9004 1.78559 18.3793 0.236714 17.4831V22.0314C1.83308 22.7434 3.56123 23.1121 5.30918 23.1135C9.13044 23.1135 11.7681 21.1691 11.7681 17.7705C11.6836 12.0894 4.64976 13.1039 4.64976 10.9734Z" fill="#6772E5"/>
<path d="M17.872 2.14734L13.3913 3.12802V18.227C13.3682 18.8634 13.4751 19.4977 13.7055 20.0913C13.9358 20.6849 14.2848 21.2253 14.7311 21.6795C15.1773 22.1337 15.7115 22.4921 16.301 22.7328C16.8904 22.9736 17.5228 23.0916 18.1594 23.0797C19.2702 23.1294 20.377 22.915 21.3889 22.4541V18.6498C20.7971 18.9034 17.9058 19.7657 17.9058 16.9589V10.1956H21.3889V6.23913H17.9058L17.872 2.14734Z" fill="#6772E5"/>
<path d="M33.0387 4.61594L37.6546 3.65217V0L33.0387 0.963768V4.61594Z" fill="#6772E5"/>
<path d="M37.6546 6.15459H33.0387V22.4541H37.6546V6.15459Z" fill="#6772E5"/>
</svg>
